<svg width="100" height="100" viewBox="0 0 100 100" fill="none" xmlns="http://www.w3.org/2000/svg">
<g clip-path="url(#clip0_145_35)">
<rect width="100" height="100" fill="white"/>
<path d="M1.87612 6.0146C-4.21649 6.35714 -10.5799 11.9615 -13 14.7209V100H112V14.7209C111.069 11.8188 108.06 6.0146 103.47 6.0146C97.7331 6.0146 95.1771 14.7209 87.6803 14.7209C77.526 14.7209 78.747 6.0146 69.7604 6.0146C60.7738 6.0146 63.7161 14.7209 52.8002 14.7209C41.8842 14.7209 42.3412 6.0146 33.6592 6.0146C24.9773 6.0146 25.6881 14.7209 17.6154 14.7209C9.54265 14.7209 9.49187 5.58642 1.87612 6.0146Z" fill="#1B2668" stroke="black"/>
<path fill-rule="evenodd" clip-rule="evenodd" d="M50.8518 26.3252L32.9211 30.554L35.6179 41.9894L6.69689 48.81L15.1294 84.5659L44.0505 77.7452L47.7217 93.3117L65.6525 89.083L61.9813 73.5165L93.0419 66.1912L84.6093 30.4354L53.5487 37.7606L50.8518 26.3252Z" fill="#BF5745"/>
</g>
<defs>
<clipPath id="clip0_145_35">
<rect width="100" height="100" fill="white"/>
</clipPath>
</defs>
</svg>
