<!--?xml version="1.0" encoding="utf-8"?-->
<!-- Generator: Adobe Illustrator 22.1.0, SVG Export Plug-In . SVG Version: 6.00 Build 0)  -->
<svg version="1.1" id="_x30_" xmlns="http://www.w3.org/2000/svg" xmlns:xlink="http://www.w3.org/1999/xlink" x="0px" y="0px" viewBox="0 0 800 750.707" style="enable-background:new 0 0 800 750.707;" xml:space="preserve">
<style type="text/css">
	.st0{fill:#040000;}
</style>
<g>
	<path class="st0" d="M100.293,235.229c6.638,0,46.065-23.773,66.863-40.115c20.815-16.351,52-68.352,52-68.352
		s-32.664-43.099-49.024-49.052c-16.359-5.933-35.658-4.13-35.658-17.82c0-8.919,20.797-14.872,40.114-8.919
		c19.316,5.934,46.047,40.114,53.515,38.626c7.413-1.479,32.666-13.365,49.025-7.414c16.36,5.935,31.186,14.854,46.065,20.788
		c14.863,5.953,69.84,16.36,101.046,8.919c31.203-7.421,126.293-47.545,175.355-63.888C648.636,31.654,733.319,0.441,777.907,1.928
		c44.588,1.498,2.976,10.399-10.408,17.838c-13.365,7.433-68.342,53.498-90.636,96.589
		c-22.293,43.099-114.426,325.434-176.834,356.646c8.891,8.919,101.043,102.532,135.223,138.19
		c34.179,35.66,72.797,65.385,106.994,92.142c34.181,26.741,43.091,50.513,34.181,44.579c0,0-20.814-28.237-47.564-44.579
		c-26.748-16.359-209.517-191.706-236.267-225.886c-8.929,5.953-40.115,14.853-56.474,17.838
		c-16.359,2.968-219.925,5.935-271.925,5.935c-52.021,0-92.133,19.327-92.133,44.579c0,25.28-11.906,14.881-13.383-5.934
		c-1.48-20.805-10.408-65.383,11.885-99.555c22.293-34.18,28.246-69.84,19.318-95.118c-8.91-25.252-41.61-44.579-47.564-59.432
		c-5.934-14.854-1.479-35.66-7.411-38.645c-5.935-2.966-35.66-23.773-32.703-44.579c2.996-20.786,12.897-26.082,20.815-20.786
		c4.455,2.966-7.449,19.299,14.844,41.592C60.159,245.627,83.932,235.229,100.293,235.229z"></path>
</g>
</svg>
