<!--?xml version="1.0" encoding="utf-8"?-->
<!-- Generator: Adobe Illustrator 22.1.0, SVG Export Plug-In . SVG Version: 6.00 Build 0)  -->
<svg version="1.1" id="_x33_" xmlns="http://www.w3.org/2000/svg" xmlns:xlink="http://www.w3.org/1999/xlink" x="0px" y="0px" viewBox="0 0 800 576.876" style="enable-background:new 0 0 800 576.876;" xml:space="preserve">
<style type="text/css">
	.st0{fill:#040000;}
</style>
<g>
	<path class="st0" d="M771.926,346.391c-10.784-1.937-12.152,0.4-20.433-2.58c-8.282-2.978-19.064-23.093-29.696-27.447
		c-10.603-4.342-61.864-17.482-74.776-23.191c-12.981-5.709-16.257-28.976-68.444-118.517
		C526.39,85.095,424.255-0.528,418.069,1.477c-6.215,2.011,0.386,12.152,30.448,69.932c30.082,57.757,4.133,173.606-8.835,222.436
		c-12.946,48.813-99.494,126.687-105.487,127.481c-12.249,1.597-32.578-20.364-36.69-31.561c-4.092-11.176-6.45,42.006-3.152,47.065
		c3.304,5.067-3.628,17.937-35.328,38.855c-23.018,15.185-135.41,67.297-202.106,85.849c-24.974,6.954-41.336,10.238-44.329,10.369
		c-10.942,0.484-28.478,9.007,37.727-2.308c66.226-11.323,209.516-87.799,213.145-87.551c3.616,0.235,11.088,15.283,22.671,23.321
		c57.828,23.274,128.409,1.335,152.934-3.082c24.539-4.424,116.734-23.696,139.522-37.927c15.844-1.376,81.398-21.221,86.237-20.889
		c4.824,0.318,71.195,4.762,81.467-4.251c10.313-8.993-7.452-15.048-18.386-14.564c-10.977,0.477-40.244-14.806-44.349-25.996
		c-4.078-11.185,23.211-38.453,23.211-38.453s8.447,0.566,18.083,1.209c9.663,0.65,50.196,10.646,67.49,5.731
		C809.653,362.247,782.71,348.326,771.926,346.391z"></path>
</g>
</svg>
